<svg version="1.1" xmlns="http://www.w3.org/2000/svg" xmlns:xlink="http://www.w3.org/1999/xlink" viewBox="0 0 32 32">
	<path fill="#e3e4e5" d="M22.103,24.633C20.376,25.856,18.277,26.59,16,26.59c-5.849,0-10.59-4.74-10.59-10.59
		c0-5.849,4.741-10.59,10.59-10.59c5.85,0,10.59,4.741,10.59,10.59c0,2.072-0.603,3.999-1.632,5.631l3.167,3.198
		c1.811-2.481,2.898-5.522,2.898-8.829c0-8.297-6.727-15.022-15.022-15.022S0.978,7.703,0.978,16S7.703,31.021,16,31.021
		c3.495,0,6.701-1.204,9.253-3.206L22.103,24.633z"/>
</svg>
